<?xml version="1.0" encoding="UTF-8" standalone="no"?>
<svg width="87px" height="104px" viewBox="0 0 87 104" version="1.1" xmlns="http://www.w3.org/2000/svg" xmlns:xlink="http://www.w3.org/1999/xlink" xmlns:sketch="http://www.bohemiancoding.com/sketch/ns">
    <!-- Generator: Sketch 3.2.2 (9983) - http://www.bohemiancoding.com/sketch -->
    <title>Imported Layers</title>
    <desc>Created with Sketch.</desc>
    <defs></defs>
    <g id="Page-1" stroke="none" stroke-width="1" fill="none" fill-rule="evenodd" sketch:type="MSPage">
        <g id="grid-layout" sketch:type="MSArtboardGroup" transform="translate(-267.000000, -373.000000)" fill="#FFFFFF">
            <g id="Imported-Layers" sketch:type="MSLayerGroup" transform="translate(267.000000, 373.000000)">
                <path d="M85.8859535,94.3857308 L61.9315349,62.0761154 C66.800186,56.1645769 69.7307907,48.6100385 69.7307907,40.3868846 C69.7307907,21.4985 54.304186,6.13257692 35.3412093,6.13257692 C16.3802791,6.13257692 0.953674419,21.4985 0.953674419,40.3868846 C0.953674419,59.2732308 16.3802791,74.6391538 35.3412093,74.6391538 C41.368186,74.6391538 47.0308837,73.0776923 51.9609302,70.3543077 L76.5252093,101.489769 C78.5144186,104.011346 82.1694884,104.474077 84.7276279,102.525308 C87.2775814,100.582654 87.7953488,96.9603077 85.8859535,94.3857308 L85.8859535,94.3857308 Z M7.0932093,40.3868846 C7.0932093,24.8701154 19.7652093,12.2479615 35.3412093,12.2479615 C50.9172093,12.2479615 63.5912558,24.8701154 63.5912558,40.3868846 C63.5912558,55.9016154 50.9172093,68.5237692 35.3412093,68.5237692 C19.7652093,68.5237692 7.0932093,55.9016154 7.0932093,40.3868846 L7.0932093,40.3868846 Z" id="Fill-1" sketch:type="MSShapeGroup"></path>
                <path d="M52.6096744,28.7146538 C50.419907,26.3255769 47.3562791,24.6010385 45.4468837,23.3025385 C39.8210233,19.4845 33.2394419,25.5020385 32.3983256,28.2967692 C31.3730233,31.701 32.0749767,32.4328077 27.451907,32.4674615 C20.9317209,32.5041538 17.7146047,35.7514231 15.584186,39.5470385 C14.427907,41.6079231 15.1053023,44.8572308 17.1211163,48.3022308 C18.0625116,49.9248462 19.1614884,51.8022692 20.5490233,53.1721154 C21.8710698,54.4726538 23.487814,55.2941538 24.8446512,56.2542692 C30.0632558,59.9398077 40.2344186,54.5175 38.0282791,47.7701923 C35.1488372,38.962 40.5946047,42.8473077 41.8613953,43.5159231 C44.272186,44.792 44.9004651,48.9015385 53.2379535,43.4201154 C59.1626047,39.5205385 56.8377674,33.344 52.6096744,28.7146538 L52.6096744,28.7146538 Z M29.6150698,46.9588846 C28.424,50.7422692 24.4926512,49.3173846 23.3261395,45.9681923 C22.8554419,44.6044615 22.8104186,43.1571538 22.8677209,41.8138077 C22.9066047,40.9495 24.0731163,40.34 24.9224186,40.0179231 C25.608,39.7590385 26.395907,39.7101154 27.0180465,39.9465769 C28.3769302,40.4582308 29.3162791,42.0033846 29.9547907,43.2121923 C30.4623256,44.1784231 29.9036279,46.0395385 29.6150698,46.9588846 L29.6150698,46.9588846 Z M45.5103256,37.6635 C44.4911628,37.4800385 42.4487442,37.0906923 41.7447442,36.2182308 C40.8708837,35.1500769 39.8148837,33.6742308 39.947907,32.3227308 C40.0011163,31.7030385 40.4042791,31.0813077 40.9670698,30.6389615 C41.6772093,30.0865385 42.6247442,29.8195 43.476093,30.1843846 C44.8063256,30.7510769 46.3534884,31.0446154 47.440186,32.0597692 C50.1374884,34.5446538 49.715907,38.4095769 45.5103256,37.6635 L45.5103256,37.6635 Z" id="Fill-2" sketch:type="MSShapeGroup"></path>
                <path d="M70.5596279,19.1298077 L73.7194419,19.1298077 L73.5843721,11.1635 L81.3938605,11.0330385 C81.3938605,11.0330385 81.7090233,8.19753846 81.3938605,8.19753846 L73.5332093,8.19753846 L73.4042791,0.555346154 C73.4042791,0.555346154 70.5596279,0.241423077 70.5596279,0.555346154 L70.5596279,8.19753846 L62.7460465,8.19753846 L62.7460465,11.3469615 L70.5596279,11.2144615 L70.5596279,19.1298077" id="Fill-3" sketch:type="MSShapeGroup"></path>
            </g>
        </g>
    </g>
</svg>