<?xml version="1.0" encoding="UTF-8" standalone="no"?>
<svg width="290px" height="11px" viewBox="0 0 290 11" version="1.1" xmlns="http://www.w3.org/2000/svg" xmlns:xlink="http://www.w3.org/1999/xlink" xmlns:sketch="http://www.bohemiancoding.com/sketch/ns">
    <!-- Generator: Sketch 3.2.2 (9983) - http://www.bohemiancoding.com/sketch -->
    <title>Fill 19</title>
    <desc>Created with Sketch.</desc>
    <defs></defs>
    <g id="Page-1" stroke="none" stroke-width="1" fill="none" fill-rule="evenodd" sketch:type="MSPage">
        <g id="home-page" sketch:type="MSArtboardGroup" transform="translate(-495.000000, -358.000000)" fill="#FFFFFF">
            <g id="logo" sketch:type="MSLayerGroup" transform="translate(495.000000, 167.000000)">
                <path d="M287.545,195.111 C285.964,193.962 283.022,192.967 279.937,192.568 C272.867,191.66 264.407,192.264 257.093,192.425 C241.938,192.755 227.005,192.343 209.642,192.409 C185.529,192.5 161.421,193.157 137.307,192.689 C118.483,192.326 99.665,192.762 80.839,192.535 C64.343,192.334 33.362,191.044 16.829,191.058 C6.729,191.064 3.335,192.07 1.208,195.144 C-1.343,198.831 6.724,200.811 16.137,201.122 C26.977,201.477 37.06,201.018 47.851,200.91 C68.822,200.703 78.872,201.186 99.627,201.384 C138.844,201.759 175.533,201.212 214.775,201.305 C226.073,201.331 239.715,201.532 251.013,201.519 C264.234,201.501 276.383,202.703 287.122,199.715 C290.883,198.67 289.388,196.447 287.545,195.111" id="Fill-19" sketch:type="MSShapeGroup"></path>
            </g>
        </g>
    </g>
</svg>