<?xml version="1.0" encoding="UTF-8" standalone="no"?>
<svg width="6px" height="68px" viewBox="0 0 6 68" version="1.1" xmlns="http://www.w3.org/2000/svg" xmlns:xlink="http://www.w3.org/1999/xlink" xmlns:sketch="http://www.bohemiancoding.com/sketch/ns">
    <!-- Generator: Sketch 3.2.2 (9983) - http://www.bohemiancoding.com/sketch -->
    <title>Fill 21</title>
    <desc>Created with Sketch.</desc>
    <defs></defs>
    <g id="Page-1" stroke="none" stroke-width="1" fill="none" fill-rule="evenodd" sketch:type="MSPage">
        <g id="about-page" sketch:type="MSArtboardGroup" transform="translate(-770.000000, -464.000000)" fill="#FFFFFF">
            <g id="Group" sketch:type="MSLayerGroup" transform="translate(380.000000, 464.000000)">
                <path d="M394.942064,64.9444847 C395.380322,63.3139451 395.088793,61.3628327 395.011085,59.67602 C394.851806,56.1808535 395.050663,52.7368865 395.018807,48.7324935 C394.974885,43.1713619 394.657776,37.6113835 394.883662,32.0500213 C395.058868,27.708681 394.848427,23.3687244 394.957992,19.0269227 C395.055007,15.2224842 395.677642,8.07739993 395.670884,4.26442816 C395.667988,1.93508595 395.18243,1.15233472 393.698725,0.661789085 C391.919149,0.0734572059 390.963477,1.93393281 390.813369,4.10483363 C390.642024,6.60484052 390.863566,8.93026206 390.915693,11.4189682 C391.015605,16.2554667 390.782479,18.5732776 390.686911,23.3599605 C390.505913,32.4044965 390.769929,40.866005 390.725042,49.9163067 C390.712492,52.5219412 390.615477,55.6681676 390.621752,58.2738021 C390.63044,61.3229341 390.05028,64.124833 391.492475,66.6015464 C391.996857,67.4689381 393.069816,67.1241494 393.714653,66.6991021 C394.269232,66.3344793 394.749482,65.6559719 394.942064,64.9444847 Z" id="Fill-21" sketch:type="MSShapeGroup"></path>
            </g>
        </g>
    </g>
</svg>